<svg xmlns="http://www.w3.org/2000/svg" width="349" height="349" fill="none">
  <g clip-path="url(#a)">
    <path fill="#A3E635" d="M64.819 348.758c-31.473-2.137-57.907-25.695-63.658-56.693-1.135-6.094-1.055 1.003-1.135-98.269-.052-64.661 0-92.704.159-95.42 1.372-22.715 9.682-43.45 24.64-61.416 2.295-2.744 9.312-9.761 12.056-12.056C54.715 10.078 75.29 1.768 97.874.29c2.19-.132 15.618-.21 37.672-.184 18.81.026 33.689.079 33.056.105-43.054 2.48-80.41 31.235-93.68 72.179-2.822 8.626-4.405 17.068-4.96 26.302-.157 2.321-.237 46.167-.237 126.919v123.385l-1.213-.027c-.686-.026-2.348-.105-3.694-.211Zm173.244 0c-30.391-1.715-58.751-16.857-77.244-41.233-12.689-16.726-19.944-36.538-21.105-57.801-.29-5.224-.29-110.3 0-113.281 1.188-12.373 8.469-22.872 19.575-28.228 9.629-4.643 20.657-4.643 30.418.027 9.418 4.458 16.514 13.56 18.968 24.218l.448 2.057.132 57.986c.106 42.104.211 58.619.396 60.333.501 4.749.949 7.783 1.556 11.028 4.353 22.608 15.961 43.08 33.029 58.355 17.333 15.459 38.306 24.429 61.864 26.434 3.034.263-.448.29-30.813.29-18.836 0-35.588-.079-37.224-.185Zm73.392-104.601c-15.564-1.055-28.438-12.452-31.71-28.122-.395-1.873-.395-4.353-.395-77.561V62.866l.448-2.902c.976-6.015 2.269-10.869 4.3-15.934 7.018-17.728 21.237-31.948 39.018-39.044 7.123-2.85 14.852-4.485 22.793-4.854L348.996 0v105.234c0 66.006-.079 106.026-.211 107.371-.581 5.989-2.454 11.265-5.804 16.304-2.058 3.086-6.279 7.307-9.286 9.312-5.013 3.351-11.107 5.514-16.304 5.857-1.029.053-2.269.132-2.744.158-.474.053-1.899 0-3.192-.079Z"/>
  </g>
  <defs>
    <clipPath id="a">
      <path fill="#fff" d="M0 0h349v349H0z"/>
    </clipPath>
  </defs>
</svg>